<svg width="473" height="477" viewBox="0 0 473 477" fill="none" xmlns="http://www.w3.org/2000/svg">
<g id="Flor">
<g id="Group">
<g id="Group_2">
<path id="Vector" d="M258.2 1.00003C243.7 9.70003 228.8 18.7 217.6 31.6C206.1 44.8 200.2 61.2 196.8 78.2C189.4 115.3 193.1 154.3 207 189.4C208.1 192.1 212.4 190.9 211.3 188.2C197.9 154.3 193.9 117 200.7 81.1C203.9 64.4 209.3 47.8 220.7 34.8C231.7 22.2 246.2 13.5001 260.4 4.90005C263 3.40005 260.7 -0.499969 258.2 1.00003Z" fill="black"/>
</g>
</g>
<g id="Group_3">
<g id="Group_4">
<path id="Vector_2" d="M242 180.4C249.1 178.9 251 171.9 252.5 165.7C253.6 161.2 255.2 157.8 259.4 155.5C262.4 153.9 265.8 153 269.1 152C274.6 150.2 280.1 147.7 282.6 142.1C285.8 134.9 284.7 124.9 284.6 117.2C284.2 79.4 276.1 42 261.1 7.29999C260 4.59999 256.1 6.89998 257.2 9.59998C271.1 41.8 278.9 76.6 280 111.8C280.2 120 281.2 130 279.2 138C277.3 145.5 270.1 146.9 263.8 149C259.2 150.5 254.5 152.4 251.5 156.5C247.4 162.1 248.9 174.4 240.9 176.1C237.9 176.7 239.1 181 242 180.4Z" fill="black"/>
</g>
</g>
<g id="Group_5">
<g id="Group_6">
<path id="Vector_3" d="M216 46.6C227.6 64.2 230.6 85.4 230.7 106.1C230.9 129.1 228.4 152.1 224 174.6C223.4 177.4 227.8 178.6 228.3 175.8C233 152.4 235.6 128.3 235.2 104.4C234.9 83.5001 231.5 62.1 219.9 44.3C218.3 41.9 214.4 44.1 216 46.6Z" fill="black"/>
</g>
</g>
<g id="Group_7">
<g id="Group_8">
<path id="Vector_4" d="M269.7 55.3C263.1 61.1 260.7 69.3 256.7 76.8C251.7 86 243.1 90.7 234 95.3C231.4 96.6 233.7 100.5 236.3 99.2C244.5 95.1 253 90.6 258.3 82.9C263.7 75.1 265.5 65.1 272.9 58.6C275 56.5 271.8 53.4 269.7 55.3Z" fill="black"/>
</g>
</g>
<g id="Group_9">
<g id="Group_10">
<path id="Vector_5" d="M260.3 14.4001C249 33.1001 247.1 56.3 255.6 76.5C256.7 79.1 261.1 78 259.9 75.3C251.9 56.2 253.4 34.4 264.2 16.7C265.6 14.2 261.8 12.0001 260.3 14.4001Z" fill="black"/>
</g>
</g>
<g id="Group_11">
<g id="Group_12">
<path id="Vector_6" d="M207.6 102.4C217.4 114.8 225.4 128.4 231.5 142.9C232.6 145.6 236.5 143.3 235.4 140.6C229.1 125.7 220.8 111.9 210.8 99.2C209 97 205.9 100.2 207.6 102.4Z" fill="black"/>
</g>
</g>
<g id="Group_13">
<g id="Group_14">
<path id="Vector_7" d="M274.3 101.9C248.7 104.2 246.5 135.8 227.9 147.6C225.5 149.1 227.7 153 230.2 151.5C238.8 146 243.9 137.4 248.9 128.8C254.6 119 261.9 107.5 274.3 106.4C277.1 106.1 277.1 101.6 274.3 101.9Z" fill="black"/>
</g>
</g>
<g id="Group_15">
<g id="Group_16">
<path id="Vector_8" d="M266.8 209.3C282.3 200.8 298.1 192.2 315.4 187.9C323.9 185.8 332.4 184.9 341.1 185.4C349.7 185.9 357.7 185.8 366.3 184.6C380.4 182.6 392.4 186.1 404.4 193.5C414.8 199.9 424.2 207.8 434.3 214.6C445.2 221.9 457.2 227.8 470.6 228.1C473.5 228.2 473.5 223.7 470.6 223.6C444.7 223.1 426 201 405.1 188.7C394.5 182.4 382.8 178.4 370.4 179.6C361.3 180.5 353 181.7 343.8 181.1C335.3 180.5 326.9 180.9 318.5 182.6C299.2 186.5 281.6 196.1 264.6 205.4C262 206.8 264.3 210.7 266.8 209.3Z" fill="black"/>
</g>
</g>
<g id="Group_17">
<g id="Group_18">
<path id="Vector_9" d="M468.6 227C451.1 234.6 433.6 242.3 416.1 249.9C399.8 257 382.1 267.8 363.8 266.1C347.7 264.7 333.3 256.4 317.6 253.3C310.3 251.9 303 252 295.6 252.4C286.8 252.9 277.9 253.5 269.8 249.5C267.2 248.2 264.9 252.1 267.5 253.4C282.8 261 300.2 254.5 316.4 257.6C332.5 260.7 347.3 269.1 363.8 270.5C381.8 272.1 398.8 262.2 414.8 255.2C433.5 247 452.2 238.9 470.9 230.7C473.5 229.8 471.2 225.9 468.6 227Z" fill="black"/>
</g>
</g>
<g id="Group_19">
<g id="Group_20">
<path id="Vector_10" d="M449.2 228.7C434.1 228.6 419.2 226.7 404.4 223.1C391.1 219.8 378.9 217.5 365.2 220.5C358.5 222 351.9 224 345.1 225.2C337.4 226.5 329.5 226.9 321.7 226.5C307 225.8 292.5 222.3 278.9 216.5C276.3 215.4 274 219.2 276.6 220.4C303.2 231.8 331.2 233.8 359.1 226.7C366.5 224.8 373.8 223.1 381.5 223.4C389.5 223.8 397.2 226.1 405 227.9C419.5 231.4 434.2 233.1 449.1 233.2C452.1 233.2 452.1 228.7 449.2 228.7Z" fill="black"/>
</g>
</g>
<g id="Group_21">
<g id="Group_22">
<path id="Vector_11" d="M389.4 196.8C379.3 205.6 368.4 213.3 356.7 219.8C354.2 221.2 356.4 225.1 359 223.7C371.1 217 382.3 209.1 392.7 200C394.8 198.1 391.6 194.9 389.4 196.8Z" fill="black"/>
</g>
</g>
<g id="Group_23">
<g id="Group_24">
<path id="Vector_12" d="M400.4 250.3C399.8 240.8 391.5 235.6 383 233.3C372.1 230.4 358.2 233.5 350.1 223.9C348.2 221.7 345.1 224.9 346.9 227.1C353.1 234.4 362.7 235.5 371.7 236.3C380.4 237 395.1 239.1 395.8 250.3C396.1 253.2 400.6 253.2 400.4 250.3Z" fill="black"/>
</g>
</g>
<g id="Group_25">
<g id="Group_26">
<path id="Vector_13" d="M351 198.7C344.6 210.5 334.6 219.4 322.3 224.7C319.6 225.8 321.9 229.7 324.6 228.6C337.6 223 348.1 213.3 354.9 201C356.3 198.5 352.4 196.2 351 198.7Z" fill="black"/>
</g>
</g>
<g id="Group_27">
<g id="Group_28">
<path id="Vector_14" d="M314.6 229.4C318.1 237.5 321.6 245.5 325 253.6C326.1 256.3 330 254 328.9 251.3C325.4 243.2 321.9 235.2 318.5 227.1C317.3 224.5 313.4 226.8 314.6 229.4Z" fill="black"/>
</g>
</g>
<g id="Group_29">
<g id="Group_30">
<path id="Vector_15" d="M331.6 205.4C331.7 197.4 321.4 197 315.5 196.6C303.9 195.8 292.3 196.6 280.8 198.4C277.9 198.9 279.2 203.2 282 202.7C289.9 201.4 298 200.7 306 200.7C309.5 200.7 327.1 199.5 327.1 205.3C327 208.3 331.5 208.3 331.6 205.4Z" fill="black"/>
</g>
</g>
<g id="Group_31">
<g id="Group_32">
<path id="Vector_16" d="M255.7 269.5C263.2 294.7 283.1 313.8 291.1 338.8C295.9 353.7 295.1 370 295.6 385.4C296.1 400.9 297.6 416.8 295.7 432.2C293.7 448.4 286.4 464.9 271.1 472.4C272.2 472.8 273.3 473.3 274.4 473.7C271 462.6 258.5 459.9 250 453.8C238.7 445.7 231.6 433 226.7 420.3C215.7 391.7 211.4 359.8 211.6 329.2C211.7 310.5 213.8 291.8 217.6 273.5C218.2 270.7 213.9 269.5 213.3 272.3C206.7 303.7 205.3 336 209.6 367.8C211.7 383.5 214.9 399.2 219.9 414.3C223.8 426.3 229.1 438.1 237.2 447.8C241.6 453 246.8 457.4 252.7 460.8C259.1 464.4 267.7 467.2 270 474.9C270.4 476.4 272 476.9 273.3 476.2C301.8 462.2 301.5 426.8 300.6 399.7C300 383.1 300.6 365.9 298.2 349.5C296.2 335.7 289.9 323.3 282.8 311.5C274.3 297.6 264.8 284.1 260 268.3C259.2 265.6 254.8 266.8 255.7 269.5Z" fill="black"/>
</g>
</g>
<g id="Group_33">
<g id="Group_34">
<path id="Vector_17" d="M244.3 284.5C244.3 297.8 244.2 311 244.2 324.3C244.2 337.2 243.4 350.4 244.6 363.3C245.6 375 250.5 385 254.2 395.9C258.5 408.5 259.7 421.9 257.8 435.1C257.4 437.9 261.7 439.2 262.1 436.3C263.8 424.7 263.4 413.1 260.6 401.7C257.5 389.3 250.7 378.1 249.3 365.2C247.8 352.4 248.7 339.2 248.8 326.3C248.8 312.4 248.9 298.4 248.9 284.5C248.8 281.6 244.3 281.6 244.3 284.5Z" fill="black"/>
</g>
</g>
<g id="Group_35">
<g id="Group_36">
<path id="Vector_18" d="M291 425.1C286.9 408.7 264.2 409.7 258.7 394.9C257.7 392.2 253.4 393.4 254.4 396.1C257 403.1 262.9 407.2 269.2 410.8C275.9 414.6 284.6 418.1 286.7 426.4C287.4 429.1 291.8 427.9 291 425.1Z" fill="black"/>
</g>
</g>
<g id="Group_37">
<g id="Group_38">
<path id="Vector_19" d="M242.1 377.9C237.5 390.4 233.5 403.2 230.3 416.1C229.6 418.9 233.9 420.1 234.6 417.3C237.9 404.4 241.8 391.6 246.4 379.1C247.4 376.4 243.1 375.2 242.1 377.9Z" fill="black"/>
</g>
</g>
<g id="Group_39">
<g id="Group_40">
<path id="Vector_20" d="M280.2 371.8C275.1 363.3 270.2 354.6 264.7 346.4C260.6 340.4 255.9 335.3 249.1 332.5C246.4 331.4 245.2 335.8 247.9 336.8C255 339.7 259.4 346.2 263.3 352.5C267.7 359.6 272 366.8 276.4 374C277.8 376.5 281.7 374.3 280.2 371.8Z" fill="black"/>
</g>
</g>
<g id="Group_41">
<g id="Group_42">
<path id="Vector_21" d="M188.6 271.9C183 285 180.3 299.2 174.1 312.1C171 318.6 166.9 325.1 160.9 329.3C154.6 333.6 146.6 334.4 140.6 339.3C134.9 344 131.2 350.7 127 356.6C122.4 363.1 116.5 368.1 109.3 371.6C96.2 377.9 81.1 378.5 66.9 378.8C51.1 379.2 34.7 378.7 19.5 383.8C20.3 384.1 21.2 384.5 22 384.8C17.2 374.5 24.1 362.9 29.9 354.6C37.9 343.3 48.1 333.5 58.1 324C65.9 316.6 74.2 309.7 81.4 301.6C92.1 289.5 102.8 277.2 115.9 267.6C131.2 256.3 148.7 250.2 167.6 248.7C170.5 248.5 170.5 244 167.6 244.2C150.5 245.5 134.1 250.3 119.6 259.6C105.3 268.8 93.4 281.2 82.3 293.9C64.3 314.3 41.5 330.3 25.8 352.7C18.9 362.5 12.6 375.2 18.2 387C18.6 387.9 19.9 388.3 20.7 388C48.9 378.6 80.2 388.2 108 376.9C114.3 374.3 120.3 370.7 125.1 365.8C130.6 360.4 134 353.3 138.8 347.3C144.7 340 152.5 338.8 160.4 334.6C166.3 331.5 170.9 326.3 174.4 320.7C183.3 306.4 185.8 289.3 192.4 274C193.7 271.6 189.8 269.3 188.6 271.9Z" fill="black"/>
</g>
</g>
<g id="Group_43">
<g id="Group_44">
<path id="Vector_22" d="M181.1 264C153.9 270.6 124.3 278.4 106.2 301.5C101.6 307.4 97.7001 313.9 92 318.8C85.9001 324 78.6001 327.5 72.5001 332.7C60.6001 342.8 51.8001 355.9 43.1001 368.7C41.5001 371.1 45.4001 373.4 47.0001 371C55.4001 358.5 64.1001 345.7 75.7001 335.9C81.6001 330.9 88.6 327.5 94.5 322.6C99.8 318.2 103.7 312.4 107.8 306.9C125.6 282.9 154.5 275.1 182.3 268.4C185.1 267.7 183.9 263.3 181.1 264Z" fill="black"/>
</g>
</g>
<g id="Group_45">
<g id="Group_46">
<path id="Vector_23" d="M83.3 334.9C88 345.3 86.1001 357.6 78.6001 366.2C76.7001 368.4 79.9 371.6 81.8 369.4C90.7 359.2 92.7001 345 87.2001 332.6C86.0001 330 82.1 332.3 83.3 334.9Z" fill="black"/>
</g>
</g>
<g id="Group_47">
<g id="Group_48">
<path id="Vector_24" d="M114.4 300.3C120.2 311.8 103.9 324.8 113.8 335.9C115.7 338.1 118.9 334.9 117 332.7C112.5 327.6 116.7 319.6 118.4 314.1C120 308.7 121 303.2 118.3 298C117 295.5 113.1 297.8 114.4 300.3Z" fill="black"/>
</g>
</g>
<g id="Group_49">
<g id="Group_50">
<path id="Vector_25" d="M119 317.7C128.7 316.8 137.5 323.4 139.3 333C139.8 335.8 144.2 334.6 143.6 331.8C141.4 320.4 130.5 312.1 118.9 313.2C116.2 313.5 116.1 318 119 317.7Z" fill="black"/>
</g>
</g>
<g id="Group_51">
<g id="Group_52">
<path id="Vector_26" d="M101 311.8C93.8 311.5 86.8 310.5 79.9 308.8C77.1 308.1 75.9001 312.4 78.7001 313.1C86.0001 314.9 93.5 316 101 316.3C103.9 316.4 103.9 311.9 101 311.8Z" fill="black"/>
</g>
</g>
<g id="Group_53">
<g id="Group_54">
<path id="Vector_27" d="M151.6 276.2C142.3 274.2 133.7 270.6 125.9 265.3C123.5 263.7 121.2 267.6 123.6 269.2C131.8 274.7 140.8 278.5 150.4 280.6C153.3 281.2 154.5 276.8 151.6 276.2Z" fill="black"/>
</g>
</g>
<g id="Group_55">
<g id="Group_56">
<path id="Vector_28" d="M149 279.8C152.5 287.9 156 295.9 159.4 304C160.5 306.7 164.4 304.4 163.3 301.7C159.8 293.6 156.3 285.6 152.9 277.5C151.8 274.9 147.9 277.2 149 279.8Z" fill="black"/>
</g>
</g>
<g id="Group_57">
<g id="Group_58">
<path id="Vector_29" d="M190.5 186.8C183.3 175.8 175.9 164.6 166.4 155.4C156.7 146 145.4 141 132.9 136.2C118.8 130.8 106.5 122.1 93.3 114.8C81.1 108 68.1 103.7 54.3 101.8C37.1 99.4 19.8 100.2 2.50003 101.1C1.10003 101.2 -0.0999671 102.5 0.300033 103.9C18.2 160.3 65.5 205.2 121.8 222.6C137.7 227.5 154.3 230.1 171 230.3C173.9 230.3 173.9 225.8 171 225.8C113.4 225.2 58.1 193.8 25.9 146.4C16.7 132.9 9.60004 118.2 4.60004 102.7C3.90004 103.6 3.20002 104.6 2.40002 105.5C21.1 104.5 40.2 103.5 58.8 106.9C76.8 110.2 91.7 119 107.2 128.2C114.3 132.4 121.5 136.4 129.1 139.4C137.3 142.7 145.7 145.4 153.1 150.4C167.4 160 177.1 174.8 186.4 188.9C188.2 191.4 192.1 189.2 190.5 186.8Z" fill="black"/>
</g>
</g>
<g id="Group_59">
<g id="Group_60">
<path id="Vector_30" d="M181.1 190.8C173.7 185.4 166.2 180 158 175.8C150.6 172 142.8 170.5 135.1 167.8C126.7 164.8 119.8 157.2 113.6 151C106.7 144.1 100.4 136.7 94.5001 129C92.8001 126.7 88.9001 129 90.6001 131.3C96.2001 138.7 102.1 145.8 108.5 152.4C114.6 158.6 121.1 165.7 128.7 170C136.5 174.4 145.9 175.1 154.1 179.1C162.9 183.4 170.9 189.2 178.8 194.9C181.2 196.4 183.4 192.5 181.1 190.8Z" fill="black"/>
</g>
</g>
<g id="Group_61">
<g id="Group_62">
<path id="Vector_31" d="M86.2001 159.9C73.1001 147.7 59.6 135.8 45.9 124.2C40.4 119.6 34.8 114.8 28 112.3C21.2 109.8 7.80004 112.1 5.80004 103C5.20004 100.2 0.800035 101.4 1.50003 104.2C2.90003 110.7 8.90003 113.5 14.9 114.5C19.9 115.3 24.7 115.5 29.3 117.8C33.2 119.7 36.6 122.4 39.9 125.1C54.7 137.2 69 150 83 163.1C85.1 165.1 88.3 161.9 86.2001 159.9Z" fill="black"/>
</g>
</g>
<g id="Group_63">
<g id="Group_64">
<path id="Vector_32" d="M84 154.9C81.2 140.8 74.2 128.1 63.9 118.1C61.8 116.1 58.6 119.3 60.7 121.3C70.5 130.8 77 142.7 79.6 156.1C80.2 158.9 84.5 157.7 84 154.9Z" fill="black"/>
</g>
</g>
<g id="Group_65">
<g id="Group_66">
<path id="Vector_33" d="M107.9 180.9C126.2 196.2 147.3 207.6 170.2 214.5C173 215.3 174.2 211 171.4 210.2C149.3 203.6 128.8 192.6 111.1 177.8C108.9 175.8 105.7 179 107.9 180.9Z" fill="black"/>
</g>
</g>
<g id="Group_67">
<g id="Group_68">
<path id="Vector_34" d="M110.6 183.7C101.5 191.2 88.4 191.7 78.5 185.3C76.1 183.7 73.8 187.6 76.2 189.2C87.9 196.8 103 195.6 113.7 186.9C116 185 112.8 181.9 110.6 183.7Z" fill="black"/>
</g>
</g>
<g id="Group_69">
<g id="Group_70">
<path id="Vector_35" d="M123.7 159.3C110.6 159.1 97.6001 158.8 84.5001 158.6C81.6001 158.5 81.6001 163 84.5001 163.1C97.6001 163.3 110.6 163.6 123.7 163.8C126.6 163.8 126.6 159.3 123.7 159.3Z" fill="black"/>
</g>
</g>
<g id="Group_71">
<g id="Group_72">
<path id="Vector_36" d="M110.6 174.7C105.1 169.4 99.6 164.2 94.1 158.9C92 156.9 88.8 160.1 90.9 162.1C96.4 167.4 101.9 172.6 107.4 177.9C109.5 179.9 112.7 176.7 110.6 174.7Z" fill="black"/>
</g>
</g>
<g id="Group_73">
<g id="Group_74">
<path id="Vector_37" d="M238.9 184C244.8 192 250.9 199.9 256.6 208C262.4 216.3 267.3 225.9 260.9 235.3C258.9 238.3 256.8 241.1 256.4 244.8C255.9 249.1 258 253.2 257.6 257.5C256.7 267.3 244.3 269.2 236.5 268.7C231.9 268.4 227.2 267.7 222.6 267.7C217.8 267.7 213.8 268.9 209.3 270.3C199 273.5 193 265 188.4 257C179.6 241.7 171.2 220.6 180.9 203.8C192.7 183.4 219.7 183.9 240.1 184.6C243 184.7 243 180.2 240.1 180.1C219.5 179.3 194.9 179.2 180.4 196.6C166.8 212.9 172.4 235.4 181 252.7C184.9 260.6 189.8 270.3 198.2 274.2C201.7 275.8 205.3 276 208.9 275C211.6 274.3 214 273.1 216.7 272.6C220.4 271.9 224.3 272.1 228 272.4C237.5 273.2 247.3 274.5 255.6 268.5C258.2 266.6 260.4 264 261.4 260.9C263.2 255.3 259.7 249.9 260.8 244.4C261.9 238.8 267.2 235.1 268.2 229.3C269 224.6 267.8 219.9 266 215.6C260.6 203.2 250.5 192.4 242.6 181.6C241.1 179.4 237.2 181.6 238.9 184Z" fill="black"/>
</g>
</g>
</g>
</svg>
